<svg version="1.0" xmlns="http://www.w3.org/2000/svg" width="196" height="196" viewBox="0 0 147 147"><path d="M96.3 4.5c-5.5 4.8-7 5.4-7.9 3-1.4-3.6-6.7.6-7.9 6.3-.4 1.8-1.5 3.7-2.6 4.2-1 .6-1.9 1.5-1.9 2 0 1.2 7.3 5 9.5 5 2.4 0 1.8 1.3-2.4 5-5.2 4.6-5.6 7.1-1.3 8.2 1.7.5 3.2 1.3 3.2 1.9 0 .8 1.3.9 3.8.4 6.9-1.3 8.4-1.3 10.2.4.9.9 2.3 1.7 3 1.9.8.2 2.6 1.2 4.1 2.3 1.5 1 3.3 1.9 4.1 1.9 1 0 .9.3-.2 1-1 .6-1.1 1-.2 1 .7 0 1.2 1.3 1.2 3 0 3.9 4.2 12.2 7.4 14.8 1.4 1.1 2.4 2.7 2.2 3.8-.2 1-.1 1.3.1.6.3-.8 1.1-1.1 2.1-.6 3.6 1.5 12 1.6 13.9.3 2.4-1.8 2.3-3.9-.2-5.3-1.8-1-1.8-1-.3.3 3 2.3.6 5.1-4.5 5.1-11.6-.1-11.7-3.7-.2-6.3 1.6-.4 1.5-.5-.5-.6-1.4 0-4.3.8-6.3 1.8l-3.8 1.9-2.4-2.4C115 62 112 55.7 112 52.1c0-3.2 0-3.2 8.3-1.6.9.2 1.5-.1 1.1-.6-.3-.5-2-.9-3.7-.9-6.2 0-6.6-1.5-1.6-6.2 11.2-10.7 28.4-10.3 29 .7.1 1.9.3 2.3.6 1.2 1.4-5.6-4-10.7-11.3-10.7-6.3 0-15.8 4.2-20 8.7-1.4 1.5-2.5 2-2.9 1.3-.3-.5-.4-1-.1-1 .3 0-.1-2.1-.9-4.8-1.9-6.1-2-5.6 1.9-7.4 4.4-2.2 10.6-7.6 10.6-9.5 0-1.7-6.9-4.8-12.7-5.8-2.4-.4-4.3-.7-4.4-.8 0-.1-.2-2.5-.5-5.2-1.1-11.2-1.6-11.5-9.1-5zm-66 1.4c-8.6 5.4-4 12.8 15 24.1 3.1 1.9 5.6 3.9 5.4 4.5C49.6 37.6 32 44.7 32 42c0-.5-.8-.6-1.9-.3-4.2 1.1-11.8-5.1-10.8-8.8.4-1.6.3-1.9-.5-1.1C16 34.6 23.5 43 29 43c2.4 0 2.5.4.3 4-4.2 7.2-18.2 9.6-25.9 4.4-2.1-1.5-3.2-1.9-2.4-1 6.4 7.9 23.8 5.7 29.7-3.6 1.7-2.9 3-3.8 5.1-3.8 3.5-.1 9.8-2.9 13.9-6.4 2.6-2.2 3.6-2.5 5.2-1.7 3.9 2.1 12.1.7 12.1-2 0-.6-.7-.3-1.6.5-3 3.1-13.4 1.2-12.9-2.3.1-.9 0-1-.2-.4-.6 1.8-.8 1.7-7.2-1.9-8.9-5-15-9.9-17-13.7-2.8-5.1 2.7-11 8.9-9.6C42.7 6.7 49.9 16 51.9 24.7c.7 3.1.9 3.3 1 1.1C53 22 47.1 11.2 43 7.9c-4.8-3.9-8.7-4.5-12.7-2z"/><path d="M72.9 17.7c-2.2 5.9-3.1 13.1-2.6 20.8.6 9.1 4 19.5 6.4 19.5 1.1 0 1.3-.5.8-1.8-3.7-8.5-5.1-16-4.6-25.4.1-2.1.5-2.5 2.1-2.1 2.4.6 9.5-.6 8.6-1.5-.4-.3-2.7-.5-5.3-.3l-4.5.3.5-3.4c.3-1.8.9-4.5 1.2-6.1 1-3.6-1.2-3.6-2.6 0zM21 30.9c0 .6.5 1.1 1.1 1.1 1.6 0 6.2 3.8 7.6 6.3.7 1.2 1.2 1.7 1.3 1.1 0-1.8-3.5-5.7-6.9-7.7-1.7-1-3.1-1.3-3.1-.8zm43.2 6c-2.1 1.3-2.3 5-.2 6.1 2.6 1.4 5 .2 5-2.6 0-2.6-2.9-4.7-4.8-3.5zm21.7 8.4c-9.1 6.2-6.6 20.8 4.1 23.5 4.9 1.2 7.5.7 11.7-2.5 9.8-7.2 4.3-23.3-8-23.3-2.9 0-5.5.8-7.8 2.3z"/><path d="M101 43.8c0 .9 6 4.6 6.4 4 .2-.1-1.2-1.3-3-2.5-1.9-1.2-3.4-1.9-3.4-1.5zm-45.7 1.7c-6.2 2.6-8.2 11.1-3.7 16.4 6.6 7.9 19.5 2.6 18.6-7.6-.6-7.2-8.1-11.6-14.9-8.8zm87.2 2.8c-1.1.7-6 1.5-11 1.8l-9 .5 8.3.2c5.8.1 9.2-.3 11.2-1.3 1.7-.9 3-1.8 3-2 0-.7-.2-.6-2.5.8zm-103.9 11c-1.9 2.9-1.1 6.1 1.9 7.7 5.1 2.7 10-4.3 5.9-8.4-2.3-2.3-6.1-2-7.8.7zm69.7 4.4c-1.7.6-1.6 3.8 0 5.2 2.1 1.7 5.6-1.2 4.1-3.5-1.2-2-2.3-2.5-4.1-1.7zm-40.2 3c-4.7 2.3-8.1 8-8.3 13.6-.1 8.2 5.4 14.5 13.6 15.4 5.7.7 9.7-.9 13.6-5.3 10.9-12.5-3.8-31.1-18.9-23.7zm-24.8 3.8c-3.7 1.6-5.5 4.5-5.6 9.3-.1 2.7.6 4.1 3.2 6.4 2.9 2.6 4 2.9 7.2 2.5 5-.7 7.9-3.6 8.6-8.5.4-3.3.1-4.4-2.3-7.1-3.4-3.7-6.7-4.5-11.1-2.6zm54.9 2.9c-3.9 3.1-5.4 7.7-3.9 12.3 1.3 4 6.5 8.3 9.5 7.8.9-.2 2.5-.4 3.4-.4 3.1-.2 7.8-5.3 8.3-9 1.2-9.7-9.9-16.5-17.3-10.7zm20.8 1.3c0 .5.5 1.5 1 2.3.7 1.2.9 1 .7-.8-.1-1.9-1.7-3.3-1.7-1.5zm3 7.9c0 1.7 6.1 7.4 10.2 9.5 3.9 2 8.3 2.5 9.2 1.1.3-.5-.8-.7-2.3-.4-3.8.5-10.2-2.9-14-7.5-1.7-2.1-3.1-3.3-3.1-2.7zM47.5 93.2c-7.3 6.5-3.1 17.3 6.7 17 4.5-.1 8.8-4.9 8.8-9.8 0-7.8-9.6-12.3-15.5-7.2zm41.8.9c-6.5 1.9-8.4 11-3.4 16 5.4 5.4 13.9 2.9 16-4.7 1.2-4.3-1.3-9.2-5.6-11-1.8-.8-3.4-1.4-3.5-1.3-.2 0-1.8.5-3.5 1zm-21.8 6.4c-5 4.9-1.5 13.5 5.5 13.5 3.9 0 8-4.2 8-8.2 0-3.9-4-7.8-8-7.8-1.9 0-4 .9-5.5 2.5z"/><path d="M61.3 109.7c-1.8.6-1.6 5 .2 5.7 2.3.8 4.5-.4 4.5-2.5 0-2-2.8-3.9-4.7-3.2zm20.1 5.8c-4.6 4.6-1.5 11.4 5.2 11.5 4.8 0 8.4-5.3 6.2-9.3-2.7-5.2-7.5-6.1-11.4-2.2zm-15.3 1.2c-3.3 2.8-3.6 6.9-.7 9.8 1.4 1.4 3.7 2.5 5.1 2.5 2.3 0 6.4-2.9 6.6-4.8 0-.4.2-1.5.4-2.4.4-2.4-3.9-6.8-6.8-6.8-1.4 0-3.4.8-4.6 1.7zm29.9.3c-1.4 2.7.4 5.2 3.4 4.8 3.1-.4 3-6.2-.1-6.6-1.4-.2-2.6.4-3.3 1.8zm-3.8 11.6c-4.1 2.8-1.6 9.4 3.5 9.4 4.2 0 6.3-5.6 3.3-8.8-2.5-2.6-3.8-2.7-6.8-.6zm-14.6 1c-3.2 3.2-.9 9.4 3.4 9.4 2.8 0 5.9-3.7 5.2-6.3-.9-3.9-6-5.7-8.6-3.1zm9.4 9.5c-.9 1.5-.8 2.4.1 3.5 2.7 3.3 7.9-.1 5.8-3.9-1.4-2.3-4.6-2.1-5.9.4z"/></svg>